<svg width="15" height="15" viewBox="0 0 15 15" fill="none" xmlns="http://www.w3.org/2000/svg">
<g clip-path="url(#clip0_41_2351)">
<path d="M7.50256 3.64893C5.37568 3.64893 3.65381 5.37268 3.65381 7.49768C3.65381 9.62455 5.37756 11.3464 7.50256 11.3464C9.62943 11.3464 11.3513 9.62268 11.3513 7.49768C11.3513 5.3708 9.62756 3.64893 7.50256 3.64893ZM7.50256 9.9958C6.12193 9.9958 5.00443 8.87768 5.00443 7.49768C5.00443 6.11768 6.12256 4.99955 7.50256 4.99955C8.88256 4.99955 10.0007 6.11768 10.0007 7.49768C10.0013 8.87768 8.88318 9.9958 7.50256 9.9958Z" fill="#A6B03B"/>
<path d="M10.5924 0.0476049C9.2124 -0.0167701 5.79427 -0.0136451 4.41302 0.0476049C3.19927 0.10448 2.12865 0.397605 1.26552 1.26073C-0.176977 2.70323 0.0073979 4.64698 0.0073979 7.49761C0.0073979 10.4151 -0.155102 12.3139 1.26552 13.7345C2.71365 15.182 4.68552 14.9926 7.5024 14.9926C10.3924 14.9926 11.3899 14.9945 12.4118 14.5989C13.8011 14.0595 14.8499 12.8176 14.9524 10.587C15.0174 9.20636 15.0136 5.78886 14.9524 4.40761C14.8286 1.77448 13.4155 0.177605 10.5924 0.0476049ZM12.7768 12.7801C11.8311 13.7257 10.5193 13.6414 7.48427 13.6414C4.35927 13.6414 3.10615 13.6876 2.19177 12.7707C1.13865 11.7226 1.32927 10.0395 1.32927 7.48761C1.32927 4.03448 0.974898 1.5476 4.44052 1.3701C5.23677 1.34198 5.47115 1.33261 7.47552 1.33261L7.50365 1.35135C10.8343 1.35135 13.4474 1.0026 13.6043 4.46761C13.6399 5.25823 13.648 5.49573 13.648 7.49698C13.6474 10.5857 13.7061 11.8464 12.7768 12.7801Z" fill="#A6B03B"/>
<path d="M11.5039 4.3964C12.0006 4.3964 12.4032 3.99374 12.4032 3.49703C12.4032 3.00032 12.0006 2.59766 11.5039 2.59766C11.0072 2.59766 10.6045 3.00032 10.6045 3.49703C10.6045 3.99374 11.0072 4.3964 11.5039 4.3964Z" fill="#A6B03B"/>
</g>
<defs>
<clipPath id="clip0_41_2351">
<rect width="15" height="15" fill="white"/>
</clipPath>
</defs>
</svg>
