<svg width="68" height="68" viewBox="0 0 68 68" fill="none" xmlns="http://www.w3.org/2000/svg">
<g clip-path="url(#clip0_41_1516)" filter="url(#filter0_d_41_1516)">
<path d="M14.5528 46.4003C13.7128 46.4003 12.9053 46.61 12.1889 47.0036C8.41513 42.166 6.34375 36.1565 6.34375 30C6.34375 14.7501 18.7501 2.34375 34 2.34375C35.8539 2.34375 37.707 2.52823 39.5078 2.89215C40.1414 3.02032 40.7603 2.61017 40.8884 1.97571C41.0166 1.34125 40.6064 0.723267 39.972 0.594635C38.0187 0.200043 36.0096 0 34 0C25.9868 0 18.453 3.12057 12.7868 8.78677C7.12057 14.453 4 21.9868 4 30C4 36.7406 6.28882 43.3186 10.4558 48.5921C9.91934 49.3936 9.63095 50.3357 9.63095 51.3222C9.63095 52.6369 10.1432 53.8728 11.0729 54.8021C12.0022 55.7318 13.2381 56.244 14.5528 56.244C15.8675 56.244 17.1035 55.7318 18.0332 54.8021C18.9629 53.8728 19.4747 52.6364 19.4747 51.3217C19.4747 50.0075 18.9629 48.7711 18.0332 47.8418C17.1035 46.9121 15.8675 46.4003 14.5528 46.4003ZM16.3756 53.145C15.889 53.632 15.2413 53.9003 14.5528 53.9003C13.8643 53.9003 13.2171 53.632 12.73 53.145C12.243 52.6579 11.9747 52.0107 11.9747 51.3222C11.9747 50.6332 12.243 49.986 12.73 49.4989C13.2166 49.0118 13.8643 48.744 14.5528 48.744C15.2413 48.744 15.8886 49.0123 16.3756 49.4989C16.8627 49.986 17.131 50.6332 17.131 51.3222C17.131 52.0107 16.8627 52.6579 16.3756 53.145Z" fill="#A6B03B"/>
<path d="M57.5432 11.4066C58.8171 9.49542 58.6125 6.88251 56.9275 5.19748C55.9978 4.26822 54.7618 3.75598 53.4471 3.75598C52.1324 3.75598 50.8965 4.26822 49.9667 5.19748C49.037 6.1272 48.5252 7.36316 48.5252 8.67786C48.5252 9.99255 49.037 11.2285 49.9667 12.1582C50.8965 13.088 52.1324 13.5997 53.4471 13.5997C54.2871 13.5997 55.0946 13.3901 55.811 12.9964C59.5848 17.8345 61.6562 23.8436 61.6562 30C61.6562 45.25 49.2499 57.6563 33.9999 57.6563C32.1643 57.6563 30.3287 57.4755 28.5448 57.1184C27.9103 56.9916 27.2928 57.4031 27.1655 58.0376C27.0387 58.6725 27.4503 59.2896 28.0847 59.4168C30.0197 59.8036 32.01 60 33.9999 60C42.0131 60 49.547 56.8795 55.2132 51.2133C60.8794 45.5471 63.9999 38.0132 63.9999 30C63.9999 23.259 61.7107 16.6805 57.5432 11.4066ZM51.6243 10.5011C51.1372 10.0141 50.869 9.36679 50.869 8.67786C50.869 7.98938 51.1372 7.3421 51.6243 6.85504C52.1109 6.36798 52.7586 6.09973 53.4471 6.09973C54.1356 6.09973 54.7833 6.36798 55.2704 6.85504C56.2752 7.86029 56.2752 9.49588 55.2704 10.5011C54.7833 10.9877 54.1356 11.256 53.4471 11.256C52.7582 11.256 52.1109 10.9877 51.6243 10.5011Z" fill="#A6B03B"/>
<path d="M29.1641 50.1562C29.1641 50.8035 29.6891 51.3281 30.3359 51.3281H37.6634C38.3106 51.3281 38.8352 50.8035 38.8352 50.1562V47.8844C40.3761 47.4696 41.8492 46.859 43.2334 46.0616L44.8374 47.6656C45.0572 47.8853 45.3552 48.0089 45.6664 48.0089C45.9768 48.0089 46.2753 47.8853 46.495 47.6651L51.6741 42.4823C52.1314 42.0245 52.1314 41.2825 51.6741 40.8252L50.072 39.223C50.8694 37.8387 51.48 36.3657 51.8948 34.8248H54.158C54.8052 34.8248 55.3298 34.3002 55.3298 33.653V26.3255C55.3298 25.6783 54.8052 25.1537 54.158 25.1537H51.8943C51.4796 23.6133 50.8694 22.1402 50.072 20.7559L51.6654 19.1624C51.8852 18.9427 52.0088 18.6443 52.0088 18.3334C52.0083 18.0226 51.8847 17.7242 51.665 17.5044L46.4817 12.3253C46.0244 11.868 45.2824 11.868 44.8246 12.3257L43.2334 13.9174C41.8492 13.12 40.3761 12.5093 38.8352 12.0946V9.84375C38.8352 9.19647 38.3106 8.67188 37.6634 8.67188H30.3359C29.6891 8.67188 29.1641 9.19647 29.1641 9.84375V12.095C27.6237 12.5093 26.1506 13.12 24.7663 13.9174L23.1747 12.3257C22.7174 11.8684 21.9753 11.868 21.5176 12.3253L16.3348 17.5049C16.1146 17.7246 15.991 18.0226 15.991 18.3334C15.991 18.6443 16.1146 18.9427 16.3343 19.1624L17.9278 20.7559C17.1304 22.1402 16.5197 23.6128 16.105 25.1537H13.8459C13.1986 25.1537 12.674 25.6783 12.674 26.3251L12.6699 33.6525C12.6695 33.9633 12.7931 34.2618 13.0128 34.4815C13.2325 34.7012 13.5305 34.8248 13.8418 34.8248H16.105C16.5197 36.3657 17.1304 37.8387 17.9278 39.223L16.3256 40.8252C15.8683 41.2825 15.8679 42.0245 16.3256 42.4823L21.5048 47.6651C21.7245 47.8848 22.0225 48.0089 22.3333 48.0089H22.3338C22.6446 48.0089 22.9426 47.8853 23.1623 47.6656L24.7659 46.0616C26.1506 46.859 27.6237 47.4696 29.1641 47.8844V50.1562ZM25.2255 43.597C24.7618 43.2971 24.1516 43.3621 23.7606 43.7526L22.3338 45.1794L18.8113 41.6542L20.2368 40.2283C20.6272 39.8378 20.6922 39.2276 20.3924 38.7639C19.3299 37.1196 18.5829 35.3174 18.1727 33.4067C18.0564 32.867 17.5794 32.4811 17.0269 32.4811H15.0141L15.0169 27.4974H17.0269C17.5794 27.4974 18.0564 27.112 18.1727 26.5718C18.5829 24.6616 19.3299 22.8593 20.3924 21.2151C20.6922 20.7513 20.6272 20.1411 20.2368 19.7507L18.8204 18.3339L22.3457 14.8114L23.7606 16.2268C24.1516 16.6173 24.7613 16.6818 25.2255 16.3824C26.8693 15.32 28.6715 14.5729 30.5822 14.1628C31.1219 14.0465 31.5078 13.569 31.5078 13.017V11.0156H36.4915V13.0165C36.4915 13.569 36.8769 14.0465 37.4171 14.1623C39.3273 14.5729 41.13 15.3195 42.7738 16.382C43.2375 16.6818 43.8477 16.6173 44.2382 16.2263L45.6536 14.8114L49.1789 18.3339L47.7625 19.7502C47.3716 20.1411 47.3071 20.7513 47.6069 21.2151C48.6694 22.8593 49.416 24.6616 49.8266 26.5718C49.9424 27.112 50.4199 27.4974 50.9724 27.4974H52.9861V32.4811H50.9724C50.4199 32.4811 49.9429 32.867 49.8266 33.4067C49.4164 35.3169 48.6694 37.1196 47.6069 38.7634C47.3071 39.2276 47.3721 39.8378 47.7625 40.2283L49.188 41.6537L45.6655 45.179L44.2387 43.7526C43.8477 43.3617 43.2375 43.2971 42.7738 43.597C41.1295 44.6594 39.3273 45.406 37.4171 45.8167C36.8769 45.9329 36.4915 46.4099 36.4915 46.9624V48.9844H31.5078V46.9624C31.5078 46.4104 31.1219 45.9329 30.5822 45.8167C28.672 45.4065 26.8698 44.6594 25.2255 43.597Z" fill="#A6B03B"/>
<path d="M43.683 30C43.683 24.6606 39.3393 20.3169 34 20.3169C28.6606 20.3169 24.3169 24.6606 24.3169 30C24.3169 35.3393 28.6606 39.683 34 39.683C39.3393 39.683 43.683 35.3393 43.683 30ZM26.6606 30C26.6606 25.9529 29.9529 22.6606 34 22.6606C38.0471 22.6606 41.3393 25.9533 41.3393 30C41.3393 34.0466 38.0471 37.3393 34 37.3393C29.9529 37.3393 26.6606 34.0471 26.6606 30Z" fill="#A6B03B"/>
<path d="M44.7905 4.43204C45.0991 4.43204 45.4012 4.30661 45.6191 4.08871C45.837 3.86945 45.9624 3.56732 45.9624 3.25879C45.9624 2.95209 45.8374 2.64951 45.6191 2.43024C45.4012 2.21234 45.0991 2.08691 44.7905 2.08691C44.4811 2.08691 44.1803 2.21234 43.9624 2.43024C43.7441 2.64951 43.6187 2.95071 43.6187 3.25879C43.6187 3.56824 43.7441 3.86945 43.9624 4.08871C44.1803 4.30661 44.4811 4.43204 44.7905 4.43204Z" fill="#A6B03B"/>
<path d="M23.2607 55.589C22.9527 55.589 22.6501 55.7144 22.4322 55.9323C22.2143 56.1502 22.0889 56.4528 22.0889 56.7609C22.0889 57.0703 22.2143 57.3715 22.4322 57.5894C22.6501 57.8073 22.9527 57.9327 23.2607 57.9327C23.5688 57.9327 23.8714 57.8073 24.0893 57.5894C24.3072 57.3715 24.4326 57.0689 24.4326 56.7609C24.4326 56.4528 24.3072 56.1502 24.0893 55.9323C23.8714 55.7144 23.5688 55.589 23.2607 55.589Z" fill="#A6B03B"/>
</g>
<defs>
<filter id="filter0_d_41_1516" x="0" y="0" width="68" height="68" filterUnits="userSpaceOnUse" color-interpolation-filters="sRGB">
<feFlood flood-opacity="0" result="BackgroundImageFix"/>
<feColorMatrix in="SourceAlpha" type="matrix" values="0 0 0 0 0 0 0 0 0 0 0 0 0 0 0 0 0 0 127 0" result="hardAlpha"/>
<feOffset dy="4"/>
<feGaussianBlur stdDeviation="2"/>
<feComposite in2="hardAlpha" operator="out"/>
<feColorMatrix type="matrix" values="0 0 0 0 0 0 0 0 0 0 0 0 0 0 0 0 0 0 0.25 0"/>
<feBlend mode="normal" in2="BackgroundImageFix" result="effect1_dropShadow_41_1516"/>
<feBlend mode="normal" in="SourceGraphic" in2="effect1_dropShadow_41_1516" result="shape"/>
</filter>
<clipPath id="clip0_41_1516">
<rect width="60" height="60" fill="white" transform="translate(4)"/>
</clipPath>
</defs>
</svg>
